M48
;Layer_Color=9474304
;FILE_FORMAT=2:5
INCH,TZ
;TYPE=PLATED
T1F00S00C0.01181
T2F00S00C0.03543
T3F00S00C0.04331
T4F00S00C0.05906
T5F00S00C0.06693
%
T01
X72835Y-120866
T02
X9055Y-47244
Y-37244
T03
X8268Y-116142
Y-106142
Y-96142
Y-86142
X109449
Y-96142
Y-106142
Y-116142
Y-76142
Y-66142
X8268
Y-76142
T04
X65650Y-19488
T05
X55650Y-29488
Y-9488
X75650
Y-29488
M30
