G04*
G04 #@! TF.GenerationSoftware,Altium Limited,Altium Designer,19.0.10 (269)*
G04*
G04 Layer_Color=16711935*
%FSLAX25Y25*%
%MOIN*%
G70*
G01*
G75*
%ADD10C,0.01000*%
%ADD11C,0.00787*%
%ADD29C,0.01968*%
%ADD39C,0.00800*%
D10*
X36580Y-96752D02*
G03*
X36580Y-96752I-557J0D01*
G01*
X9334Y-47244D02*
G03*
X9334Y-47244I-278J0D01*
G01*
X2362Y-60142D02*
X14173D01*
Y-122047D02*
Y-60142D01*
X2362Y-122047D02*
X14173D01*
X2362D02*
Y-60142D01*
X103543D02*
X115354D01*
Y-122047D02*
Y-60142D01*
X103543Y-122047D02*
X115354D01*
X103543D02*
Y-60142D01*
D11*
X32480Y-99902D02*
Y-78248D01*
Y-99902D02*
X76181D01*
Y-78248D01*
X32480D02*
X76181D01*
X2362Y-54331D02*
X14764D01*
X14961Y-54528D01*
Y-29528D01*
X2559D02*
X14961D01*
X2362Y-29724D02*
X2559Y-29528D01*
X2362Y-54331D02*
Y-29724D01*
X49431Y-135579D02*
Y-119535D01*
X34765Y-135579D02*
X49431D01*
X34765D02*
Y-119535D01*
X49431D01*
X92739Y-135382D02*
Y-119339D01*
X78074Y-135382D02*
X92739D01*
X78074D02*
Y-119339D01*
X92739D01*
X64075Y-91239D02*
Y-87959D01*
X63419Y-87303D01*
X62107D01*
X61451Y-87959D01*
Y-91239D01*
X60139Y-87303D02*
X58827D01*
X59483D01*
Y-91239D01*
X60139Y-90583D01*
X73622Y-131201D02*
X70473D01*
Y-129627D01*
X70998Y-129102D01*
X72048D01*
X72572Y-129627D01*
Y-131201D01*
Y-130151D02*
X73622Y-129102D01*
Y-126478D02*
X70473D01*
X72048Y-128052D01*
Y-125953D01*
X63649Y-56431D02*
X62993Y-57087D01*
Y-58399D01*
X63649Y-59055D01*
X66273D01*
X66929Y-58399D01*
Y-57087D01*
X66273Y-56431D01*
X66929Y-52496D02*
Y-55119D01*
X64305Y-52496D01*
X63649D01*
X62993Y-53152D01*
Y-54463D01*
X63649Y-55119D01*
X59842Y-38190D02*
Y-42126D01*
X62466D01*
X63778D02*
X65090D01*
X64434D01*
Y-38190D01*
X63778Y-38846D01*
X47768Y-43175D02*
X48424Y-42519D01*
Y-41207D01*
X47768Y-40551D01*
X45144D01*
X44488Y-41207D01*
Y-42519D01*
X45144Y-43175D01*
X44488Y-44487D02*
Y-45799D01*
Y-45143D01*
X48424D01*
X47768Y-44487D01*
X5907Y-46063D02*
X10630D01*
X8269D01*
Y-42914D01*
X5907D01*
X10630D01*
Y-41340D02*
Y-39766D01*
Y-40553D01*
X5907D01*
X6694Y-41340D01*
X18503Y-17717D02*
X14567D01*
Y-19684D01*
X15223Y-20340D01*
X17847D01*
X18503Y-19684D01*
Y-17717D01*
X14567Y-21652D02*
Y-22964D01*
Y-22308D01*
X18503D01*
X17847Y-21652D01*
X7087Y-23228D02*
X3938D01*
Y-21654D01*
X4463Y-21129D01*
X5512D01*
X6037Y-21654D01*
Y-23228D01*
Y-22179D02*
X7087Y-21129D01*
Y-20080D02*
Y-19030D01*
Y-19555D01*
X3938D01*
X4463Y-20080D01*
X60631Y-129921D02*
X64567D01*
Y-127953D01*
X63911Y-127297D01*
X61287D01*
X60631Y-127953D01*
Y-129921D01*
X64567Y-123362D02*
Y-125986D01*
X61943Y-123362D01*
X61287D01*
X60631Y-124018D01*
Y-125330D01*
X61287Y-125986D01*
X37423Y-125343D02*
Y-127967D01*
X37948Y-128492D01*
X38997D01*
X39522Y-127967D01*
Y-125343D01*
X42671Y-128492D02*
X40571D01*
X42671Y-126393D01*
Y-125868D01*
X42146Y-125343D01*
X41096D01*
X40571Y-125868D01*
X30315Y-131102D02*
X27166D01*
Y-129528D01*
X27691Y-129003D01*
X28741D01*
X29265Y-129528D01*
Y-131102D01*
Y-130053D02*
X30315Y-129003D01*
X27691Y-127954D02*
X27166Y-127429D01*
Y-126380D01*
X27691Y-125855D01*
X28216D01*
X28741Y-126380D01*
Y-126904D01*
Y-126380D01*
X29265Y-125855D01*
X29790D01*
X30315Y-126380D01*
Y-127429D01*
X29790Y-127954D01*
X6694Y-116142D02*
X10630D01*
X8662D01*
Y-113518D01*
X6694D01*
X10630D01*
X7350Y-112206D02*
X6694Y-111550D01*
Y-110238D01*
X7350Y-109582D01*
X8006D01*
X8662Y-110238D01*
Y-110894D01*
Y-110238D01*
X9318Y-109582D01*
X9974D01*
X10630Y-110238D01*
Y-111550D01*
X9974Y-112206D01*
X107875Y-116142D02*
X111811D01*
X109843D01*
Y-113518D01*
X107875D01*
X111811D01*
Y-110238D02*
X107875D01*
X109843Y-112206D01*
Y-109582D01*
X80731Y-125147D02*
Y-127770D01*
X81256Y-128295D01*
X82305D01*
X82830Y-127770D01*
Y-125147D01*
X83880Y-125671D02*
X84404Y-125147D01*
X85454D01*
X85979Y-125671D01*
Y-126196D01*
X85454Y-126721D01*
X84929D01*
X85454D01*
X85979Y-127246D01*
Y-127770D01*
X85454Y-128295D01*
X84404D01*
X83880Y-127770D01*
X53937Y-127165D02*
X57086D01*
Y-128740D01*
X56561Y-129264D01*
X55511D01*
X54987Y-128740D01*
Y-127165D01*
Y-128215D02*
X53937Y-129264D01*
Y-132413D02*
Y-130314D01*
X56036Y-132413D01*
X56561D01*
X57086Y-131888D01*
Y-130839D01*
X56561Y-130314D01*
D29*
X5906Y-62205D02*
G03*
X5906Y-62205I-394J0D01*
G01*
X107087D02*
G03*
X107087Y-62205I-394J0D01*
G01*
D39*
X68898Y-135531D02*
X76772D01*
Y-122933D01*
X68898D02*
X76772D01*
X68898Y-135531D02*
Y-122933D01*
X61811Y-61811D02*
X69685D01*
Y-47638D01*
X61811D02*
X69685D01*
X61811Y-61811D02*
Y-47638D01*
X55512Y-45276D02*
Y-37402D01*
Y-45276D02*
X68110D01*
Y-37402D01*
X55512D02*
X68110D01*
X41732Y-37795D02*
X49606D01*
X41732Y-51968D02*
Y-37795D01*
Y-51968D02*
X49606D01*
Y-37795D01*
X19291Y-27461D02*
Y-12697D01*
X11417Y-27461D02*
X19291D01*
X11417D02*
Y-12697D01*
X19291D01*
X11417Y-11122D02*
X19291D01*
X2362Y-27559D02*
X10236D01*
Y-14961D01*
X2362D02*
X10236D01*
X2362Y-27559D02*
Y-14961D01*
X59842Y-134941D02*
Y-120177D01*
X67716D01*
Y-134941D02*
Y-120177D01*
X59842Y-134941D02*
X67716D01*
X59842Y-136516D02*
X67716D01*
X25591Y-135433D02*
X33465D01*
Y-122835D01*
X25591D02*
X33465D01*
X25591Y-135433D02*
Y-122835D01*
X50787D02*
X58661D01*
X50787Y-135433D02*
Y-122835D01*
Y-135433D02*
X58661D01*
Y-122835D01*
M02*
