G04*
G04 #@! TF.GenerationSoftware,Altium Limited,Altium Designer,19.0.10 (269)*
G04*
G04 Layer_Color=65535*
%FSLAX25Y25*%
%MOIN*%
G70*
G01*
G75*
%ADD10C,0.01000*%
%ADD11C,0.00787*%
D10*
X36580Y-96752D02*
G03*
X36580Y-96752I-557J0D01*
G01*
X97244Y-60142D02*
X103543D01*
X14173D02*
X20866D01*
Y-122047D02*
Y-60142D01*
X14173Y-122047D02*
X20866D01*
X97244D02*
Y-60142D01*
Y-122047D02*
X103543D01*
X2362D02*
X14173D01*
X2362Y-60142D02*
X14173D01*
Y-122047D02*
Y-60142D01*
X2362Y-122047D02*
Y-60142D01*
X103543Y-122047D02*
X115354D01*
X103543Y-60142D02*
X115354D01*
Y-122047D02*
Y-60142D01*
X103543Y-122047D02*
Y-60142D01*
D11*
X32480Y-99902D02*
Y-78248D01*
Y-99902D02*
X76181D01*
Y-78248D01*
X32480D02*
X76181D01*
X53150Y-3740D02*
Y25787D01*
X60532Y-33267D02*
X70768D01*
X51871Y-24606D02*
Y-14370D01*
X60531Y-5709D02*
X70768D01*
X53150Y25787D02*
X78150D01*
X79428Y-24606D02*
Y-14370D01*
X78150Y-3740D02*
Y25787D01*
X68898Y-135531D02*
X76772D01*
Y-122933D01*
X68898D02*
X76772D01*
X68898Y-135531D02*
Y-122933D01*
X61811Y-61811D02*
Y-47638D01*
X69685D01*
Y-61811D02*
Y-47638D01*
X61811Y-61811D02*
X69685D01*
X55512Y-45276D02*
Y-37402D01*
Y-45276D02*
X68110D01*
Y-37402D01*
X55512D02*
X68110D01*
X49606Y-51968D02*
Y-37795D01*
X41732Y-51968D02*
X49606D01*
X41732D02*
Y-37795D01*
X49606D01*
X14173Y-54331D02*
X14961D01*
Y-29528D01*
X2362D02*
X14961D01*
X2362Y-54331D02*
Y-29528D01*
Y-54331D02*
X3150D01*
X14173D01*
X19291Y-27461D02*
Y-12697D01*
X11417Y-27461D02*
X19291D01*
X11417D02*
Y-12697D01*
X19291D01*
X11417Y-11122D02*
X19291D01*
X2362Y-27559D02*
X10236D01*
Y-14961D01*
X2362D02*
X10236D01*
X2362Y-27559D02*
Y-14961D01*
X59842Y-134941D02*
Y-120177D01*
X67716D01*
Y-134941D02*
Y-120177D01*
X59842Y-134941D02*
X67716D01*
X59842Y-136516D02*
X67716D01*
X49431Y-135579D02*
Y-119535D01*
X34765D02*
X49431D01*
X34765Y-135579D02*
Y-119535D01*
Y-135579D02*
X49431D01*
X25591Y-135433D02*
X33465D01*
Y-122835D01*
X25591D02*
X33465D01*
X25591Y-135433D02*
Y-122835D01*
X92739Y-135382D02*
Y-119339D01*
X78074D02*
X92739D01*
X78074Y-135382D02*
Y-119339D01*
Y-135382D02*
X92739D01*
X50787Y-122835D02*
X58661D01*
X50787Y-135433D02*
Y-122835D01*
Y-135433D02*
X58661D01*
Y-122835D01*
X20866Y-16535D02*
X23228D01*
Y-17716D01*
X22834Y-18110D01*
X22047D01*
X21653Y-17716D01*
Y-16535D01*
X23228Y-18897D02*
X20866D01*
X21653Y-19684D01*
X20866Y-20471D01*
X23228D01*
X20866Y-21258D02*
X23228D01*
Y-22439D01*
X22834Y-22833D01*
X22047D01*
X21653Y-22439D01*
Y-21258D01*
Y-22046D02*
X20866Y-22833D01*
X18897Y-35826D02*
X19291Y-35433D01*
Y-34646D01*
X18897Y-34252D01*
X17323D01*
X16929Y-34646D01*
Y-35433D01*
X17323Y-35826D01*
X18110D01*
Y-35039D01*
X16929Y-36613D02*
X19291D01*
X16929Y-38188D01*
X19291D01*
Y-38975D02*
X16929D01*
Y-40156D01*
X17323Y-40549D01*
X18897D01*
X19291Y-40156D01*
Y-38975D01*
X18897Y-44094D02*
X19291Y-44488D01*
Y-45275D01*
X18897Y-45669D01*
X18503D01*
X18110Y-45275D01*
Y-44882D01*
Y-45275D01*
X17716Y-45669D01*
X17323D01*
X16929Y-45275D01*
Y-44488D01*
X17323Y-44094D01*
X19291Y-46456D02*
X17716D01*
X16929Y-47243D01*
X17716Y-48030D01*
X19291D01*
X18897Y-48817D02*
X19291Y-49211D01*
Y-49998D01*
X18897Y-50392D01*
X18503D01*
X18110Y-49998D01*
Y-49604D01*
Y-49998D01*
X17716Y-50392D01*
X17323D01*
X16929Y-49998D01*
Y-49211D01*
X17323Y-48817D01*
X99607Y-117717D02*
X99213Y-118111D01*
Y-118898D01*
X99607Y-119291D01*
X101181D01*
X101575Y-118898D01*
Y-118111D01*
X101181Y-117717D01*
X100394D01*
Y-118504D01*
X101575Y-116930D02*
X99213D01*
X101575Y-115356D01*
X99213D01*
Y-114568D02*
X101575D01*
Y-113388D01*
X101181Y-112994D01*
X99607D01*
X99213Y-113388D01*
Y-114568D01*
X99607Y-109055D02*
X99213Y-108662D01*
Y-107874D01*
X99607Y-107481D01*
X100001D01*
X100394Y-107874D01*
Y-108268D01*
Y-107874D01*
X100788Y-107481D01*
X101181D01*
X101575Y-107874D01*
Y-108662D01*
X101181Y-109055D01*
X99213Y-106694D02*
X100788D01*
X101575Y-105906D01*
X100788Y-105119D01*
X99213D01*
X99607Y-104332D02*
X99213Y-103939D01*
Y-103152D01*
X99607Y-102758D01*
X100001D01*
X100394Y-103152D01*
Y-103545D01*
Y-103152D01*
X100788Y-102758D01*
X101181D01*
X101575Y-103152D01*
Y-103939D01*
X101181Y-104332D01*
X99607Y-99606D02*
X99213Y-99213D01*
Y-98426D01*
X99607Y-98032D01*
X100001D01*
X100394Y-98426D01*
Y-98819D01*
Y-98426D01*
X100788Y-98032D01*
X101181D01*
X101575Y-98426D01*
Y-99213D01*
X101181Y-99606D01*
X99213Y-97245D02*
X100788D01*
X101575Y-96458D01*
X100788Y-95671D01*
X99213D01*
X99607Y-94883D02*
X99213Y-94490D01*
Y-93703D01*
X99607Y-93309D01*
X100001D01*
X100394Y-93703D01*
Y-94096D01*
Y-93703D01*
X100788Y-93309D01*
X101181D01*
X101575Y-93703D01*
Y-94490D01*
X101181Y-94883D01*
X99213Y-88583D02*
Y-90158D01*
X100394D01*
Y-89370D01*
Y-90158D01*
X101575D01*
Y-87796D02*
X99213D01*
Y-86615D01*
X99607Y-86222D01*
X100394D01*
X100788Y-86615D01*
Y-87796D01*
Y-87009D02*
X101575Y-86222D01*
X99607Y-83860D02*
X99213Y-84254D01*
Y-85041D01*
X99607Y-85435D01*
X101181D01*
X101575Y-85041D01*
Y-84254D01*
X101181Y-83860D01*
X99213Y-81499D02*
Y-83073D01*
X101575D01*
Y-81499D01*
X100394Y-83073D02*
Y-82286D01*
X99213Y-68898D02*
Y-67323D01*
Y-68111D01*
X101575D01*
X99213Y-66536D02*
X101575Y-64962D01*
X99213D02*
X101575Y-66536D01*
Y-64175D02*
Y-63388D01*
Y-63781D01*
X99213D01*
X99607Y-64175D01*
X101575Y-78347D02*
X99213D01*
Y-77166D01*
X99607Y-76772D01*
X100394D01*
X100788Y-77166D01*
Y-78347D01*
Y-77559D02*
X101575Y-76772D01*
X99213Y-75985D02*
X101575Y-74411D01*
X99213D02*
X101575Y-75985D01*
Y-73624D02*
Y-72836D01*
Y-73230D01*
X99213D01*
X99607Y-73624D01*
X18110Y-114960D02*
X18503Y-114567D01*
Y-113779D01*
X18110Y-113386D01*
X16535D01*
X16142Y-113779D01*
Y-114567D01*
X16535Y-114960D01*
X17323D01*
Y-114173D01*
X16142Y-115747D02*
X18503D01*
X16142Y-117322D01*
X18503D01*
Y-118109D02*
X16142D01*
Y-119289D01*
X16535Y-119683D01*
X18110D01*
X18503Y-119289D01*
Y-118109D01*
Y-103937D02*
Y-105511D01*
Y-104724D01*
X16142D01*
X18503Y-106298D02*
X16142Y-107873D01*
X18503D02*
X16142Y-106298D01*
Y-94095D02*
X18503D01*
Y-95275D01*
X18110Y-95669D01*
X17323D01*
X16929Y-95275D01*
Y-94095D01*
Y-94882D02*
X16142Y-95669D01*
X18503Y-96456D02*
X16142Y-98030D01*
X18503D02*
X16142Y-96456D01*
Y-83071D02*
X18503D01*
Y-84252D01*
X18110Y-84645D01*
X17323D01*
X16929Y-84252D01*
Y-83071D01*
Y-83858D02*
X16142Y-84645D01*
X18110Y-87007D02*
X18503Y-86613D01*
Y-85826D01*
X18110Y-85432D01*
X17716D01*
X17323Y-85826D01*
Y-86613D01*
X16929Y-87007D01*
X16535D01*
X16142Y-86613D01*
Y-85826D01*
X16535Y-85432D01*
X18503Y-87794D02*
Y-89368D01*
Y-88581D01*
X16142D01*
X18503Y-73228D02*
X16142D01*
Y-74409D01*
X16535Y-74803D01*
X16929D01*
X17323Y-74409D01*
Y-73228D01*
Y-74409D01*
X17716Y-74803D01*
X18110D01*
X18503Y-74409D01*
Y-73228D01*
X16142Y-75590D02*
X17716D01*
X18503Y-76377D01*
X17716Y-77164D01*
X16142D01*
X17323D01*
Y-75590D01*
X18503Y-77951D02*
Y-79526D01*
Y-78738D01*
X16142D01*
X18110Y-62598D02*
X18503Y-62992D01*
Y-63779D01*
X18110Y-64173D01*
X17716D01*
X17323Y-63779D01*
Y-63386D01*
Y-63779D01*
X16929Y-64173D01*
X16535D01*
X16142Y-63779D01*
Y-62992D01*
X16535Y-62598D01*
X18503Y-64960D02*
X16929D01*
X16142Y-65747D01*
X16929Y-66534D01*
X18503D01*
X18110Y-67321D02*
X18503Y-67715D01*
Y-68502D01*
X18110Y-68896D01*
X17716D01*
X17323Y-68502D01*
Y-68108D01*
Y-68502D01*
X16929Y-68896D01*
X16535D01*
X16142Y-68502D01*
Y-67715D01*
X16535Y-67321D01*
X5906Y-56693D02*
Y-58005D01*
Y-57349D01*
X9841D01*
X9185Y-56693D01*
X107874Y-57087D02*
Y-58398D01*
Y-57743D01*
X111810D01*
X111154Y-57087D01*
X43831Y-33597D02*
X43307Y-33072D01*
X42257D01*
X41732Y-33597D01*
Y-35696D01*
X42257Y-36220D01*
X43307D01*
X43831Y-35696D01*
X44881Y-36220D02*
X45930D01*
X45406D01*
Y-33072D01*
X44881Y-33597D01*
X73359Y-58793D02*
X72834Y-58269D01*
X71785D01*
X71260Y-58793D01*
Y-60893D01*
X71785Y-61417D01*
X72834D01*
X73359Y-60893D01*
X76508Y-61417D02*
X74408D01*
X76508Y-59318D01*
Y-58793D01*
X75983Y-58269D01*
X74933D01*
X74408Y-58793D01*
X11417Y-6300D02*
Y-9449D01*
X12992D01*
X13516Y-8924D01*
Y-6825D01*
X12992Y-6300D01*
X11417D01*
X14566Y-9449D02*
X15615D01*
X15091D01*
Y-6300D01*
X14566Y-6825D01*
X61024Y-115749D02*
Y-118898D01*
X62598D01*
X63123Y-118373D01*
Y-116274D01*
X62598Y-115749D01*
X61024D01*
X66271Y-118898D02*
X64172D01*
X66271Y-116799D01*
Y-116274D01*
X65746Y-115749D01*
X64697D01*
X64172Y-116274D01*
X18504Y-54332D02*
Y-57480D01*
Y-55906D01*
X20603D01*
Y-54332D01*
Y-57480D01*
X21653D02*
X22702D01*
X22177D01*
Y-54332D01*
X21653Y-54856D01*
X2362Y-123623D02*
Y-126772D01*
Y-125197D01*
X4461D01*
Y-123623D01*
Y-126772D01*
X5511Y-124148D02*
X6036Y-123623D01*
X7085D01*
X7610Y-124148D01*
Y-124673D01*
X7085Y-125197D01*
X6560D01*
X7085D01*
X7610Y-125722D01*
Y-126247D01*
X7085Y-126772D01*
X6036D01*
X5511Y-126247D01*
X103543Y-123623D02*
Y-126772D01*
Y-125197D01*
X105642D01*
Y-123623D01*
Y-126772D01*
X108266D02*
Y-123623D01*
X106692Y-125197D01*
X108791D01*
X47768Y-3544D02*
X46719D01*
X47244D01*
Y-6168D01*
X46719Y-6693D01*
X46194D01*
X45669Y-6168D01*
X48818Y-6693D02*
X49867D01*
X49343D01*
Y-3544D01*
X48818Y-4069D01*
X69685Y-41340D02*
Y-44488D01*
X71784D01*
X72834D02*
X73883D01*
X73358D01*
Y-41340D01*
X72834Y-41864D01*
X2362Y-13386D02*
Y-10237D01*
X3937D01*
X4461Y-10762D01*
Y-11812D01*
X3937Y-12336D01*
X2362D01*
X3412D02*
X4461Y-13386D01*
X5511D02*
X6560D01*
X6036D01*
Y-10237D01*
X5511Y-10762D01*
X51969Y-121307D02*
Y-118158D01*
X53544D01*
X54068Y-118683D01*
Y-119733D01*
X53544Y-120257D01*
X51969D01*
X53019D02*
X54068Y-121307D01*
X57217D02*
X55118D01*
X57217Y-119208D01*
Y-118683D01*
X56692Y-118158D01*
X55643D01*
X55118Y-118683D01*
X26772Y-121307D02*
Y-118158D01*
X28346D01*
X28871Y-118683D01*
Y-119733D01*
X28346Y-120257D01*
X26772D01*
X27821D02*
X28871Y-121307D01*
X29920Y-118683D02*
X30445Y-118158D01*
X31495D01*
X32019Y-118683D01*
Y-119208D01*
X31495Y-119733D01*
X30970D01*
X31495D01*
X32019Y-120257D01*
Y-120782D01*
X31495Y-121307D01*
X30445D01*
X29920Y-120782D01*
X70079Y-118504D02*
Y-115355D01*
X71653D01*
X72178Y-115880D01*
Y-116930D01*
X71653Y-117454D01*
X70079D01*
X71128D02*
X72178Y-118504D01*
X74802D02*
Y-115355D01*
X73227Y-116930D01*
X75326D01*
X28346Y-70080D02*
Y-72704D01*
X28871Y-73228D01*
X29921D01*
X30446Y-72704D01*
Y-70080D01*
X31495Y-73228D02*
X32545D01*
X32020D01*
Y-70080D01*
X31495Y-70604D01*
X35039Y-114962D02*
Y-117586D01*
X35564Y-118110D01*
X36614D01*
X37138Y-117586D01*
Y-114962D01*
X40287Y-118110D02*
X38188D01*
X40287Y-116011D01*
Y-115486D01*
X39762Y-114962D01*
X38713D01*
X38188Y-115486D01*
X78482Y-114962D02*
Y-117586D01*
X79007Y-118110D01*
X80056D01*
X80581Y-117586D01*
Y-114962D01*
X81630Y-115486D02*
X82155Y-114962D01*
X83205D01*
X83729Y-115486D01*
Y-116011D01*
X83205Y-116536D01*
X82680D01*
X83205D01*
X83729Y-117061D01*
Y-117586D01*
X83205Y-118110D01*
X82155D01*
X81630Y-117586D01*
M02*
