G04*
G04 #@! TF.GenerationSoftware,Altium Limited,Altium Designer,19.0.10 (269)*
G04*
G04 Layer_Color=8388736*
%FSLAX25Y25*%
%MOIN*%
G70*
G01*
G75*
%ADD17R,0.03150X0.07874*%
%ADD18R,0.05906X0.03543*%
%ADD19R,0.05906X0.04331*%
%ADD20R,0.03543X0.05906*%
%ADD21R,0.04016X0.05197*%
%ADD22C,0.09646*%
%ADD23C,0.10827*%
%ADD24O,0.08661X0.06693*%
%ADD25R,0.08661X0.06693*%
%ADD26O,0.08661X0.07087*%
%ADD27R,0.08661X0.07087*%
%ADD28C,0.03150*%
D17*
X69882Y-108563D02*
D03*
X35236D02*
D03*
X43898D02*
D03*
X39567D02*
D03*
X48228D02*
D03*
X52559D02*
D03*
X56890D02*
D03*
X61221D02*
D03*
X65551D02*
D03*
X35236Y-70374D02*
D03*
X39567D02*
D03*
X43898D02*
D03*
X48228D02*
D03*
X52559D02*
D03*
X56890D02*
D03*
X61221D02*
D03*
X65551D02*
D03*
X69882D02*
D03*
D18*
X72835Y-132972D02*
D03*
Y-125492D02*
D03*
X6299Y-25000D02*
D03*
Y-17520D02*
D03*
X29528Y-132874D02*
D03*
Y-125394D02*
D03*
X54724Y-125394D02*
D03*
Y-132874D02*
D03*
D19*
X65748Y-50984D02*
D03*
Y-58465D02*
D03*
X45669Y-48622D02*
D03*
Y-41142D02*
D03*
X15354Y-23524D02*
D03*
Y-16043D02*
D03*
X63779Y-124114D02*
D03*
Y-131595D02*
D03*
D20*
X58071Y-41339D02*
D03*
X65551D02*
D03*
D21*
X46281Y-131740D02*
D03*
X38013D02*
D03*
X42147Y-123472D02*
D03*
X89589Y-131543D02*
D03*
X81322D02*
D03*
X85455Y-123275D02*
D03*
D22*
X65650Y-19488D02*
D03*
D23*
X55650Y-29488D02*
D03*
Y-9488D02*
D03*
X75650D02*
D03*
Y-29488D02*
D03*
D24*
X9055Y-37244D02*
D03*
D25*
Y-47244D02*
D03*
D26*
X8268Y-116142D02*
D03*
Y-106142D02*
D03*
Y-96142D02*
D03*
Y-86142D02*
D03*
Y-76142D02*
D03*
X109449Y-116142D02*
D03*
Y-106142D02*
D03*
Y-96142D02*
D03*
Y-86142D02*
D03*
Y-76142D02*
D03*
D27*
X8268Y-66142D02*
D03*
X109449D02*
D03*
D28*
X72835Y-120866D02*
D03*
M02*
