G04*
G04 #@! TF.GenerationSoftware,Altium Limited,Altium Designer,19.0.10 (269)*
G04*
G04 Layer_Color=32768*
%FSLAX25Y25*%
%MOIN*%
G70*
G01*
G75*
%ADD10C,0.01000*%
%ADD11C,0.00787*%
%ADD38C,0.00197*%
D10*
X0Y-152362D02*
X6000Y-150362D01*
X0Y-152362D02*
X6000Y-154362D01*
X111716D02*
X117717Y-152362D01*
X111716Y-150362D02*
X117717Y-152362D01*
X0D02*
X47937D01*
X66205D02*
X117717D01*
X0Y-153362D02*
Y-138795D01*
X117717Y-153362D02*
Y-138402D01*
X131465Y-131402D02*
X133465Y-137402D01*
X135465Y-131402D01*
X133465Y0D02*
X135465Y-6000D01*
X131465D02*
X133465Y0D01*
Y-137402D02*
Y-79622D01*
Y-61354D02*
Y0D01*
X118717Y-137402D02*
X134465D01*
X118717Y0D02*
X134465D01*
D11*
X51823Y-155249D02*
X49724D01*
X51823Y-153150D01*
Y-152625D01*
X51298Y-152100D01*
X50249D01*
X49724Y-152625D01*
X52873Y-154724D02*
X53398Y-155249D01*
X54447D01*
X54972Y-154724D01*
Y-152625D01*
X54447Y-152100D01*
X53398D01*
X52873Y-152625D01*
Y-153150D01*
X53398Y-153674D01*
X54972D01*
X56546Y-155773D02*
X57071Y-155249D01*
Y-154724D01*
X56546D01*
Y-155249D01*
X57071D01*
X56546Y-155773D01*
X56021Y-156298D01*
X59170Y-154724D02*
X59695Y-155249D01*
X60744D01*
X61269Y-154724D01*
Y-152625D01*
X60744Y-152100D01*
X59695D01*
X59170Y-152625D01*
Y-153150D01*
X59695Y-153674D01*
X61269D01*
X62318Y-152625D02*
X62843Y-152100D01*
X63893D01*
X64418Y-152625D01*
Y-154724D01*
X63893Y-155249D01*
X62843D01*
X62318Y-154724D01*
Y-152625D01*
X133727Y-77835D02*
X133202Y-77310D01*
Y-76261D01*
X133727Y-75736D01*
X134252D01*
X134777Y-76261D01*
Y-76785D01*
Y-76261D01*
X135301Y-75736D01*
X135826D01*
X136351Y-76261D01*
Y-77310D01*
X135826Y-77835D01*
X136351Y-73112D02*
X133202D01*
X134777Y-74686D01*
Y-72587D01*
X136876Y-71013D02*
X136351Y-70488D01*
X135826D01*
Y-71013D01*
X136351D01*
Y-70488D01*
X136876Y-71013D01*
X137401Y-71538D01*
X135826Y-68389D02*
X136351Y-67864D01*
Y-66815D01*
X135826Y-66290D01*
X133727D01*
X133202Y-66815D01*
Y-67864D01*
X133727Y-68389D01*
X134252D01*
X134777Y-67864D01*
Y-66290D01*
X133727Y-65241D02*
X133202Y-64716D01*
Y-63666D01*
X133727Y-63142D01*
X135826D01*
X136351Y-63666D01*
Y-64716D01*
X135826Y-65241D01*
X133727D01*
D38*
X65650Y-21457D02*
Y-17520D01*
X63681Y-19488D02*
X67618D01*
X81457Y-35295D02*
Y26575D01*
X49843D02*
X81457D01*
X49843Y-35295D02*
Y26575D01*
Y-35295D02*
X81457D01*
M02*
